{
    "asset" : {
        "generator" : "Khronos glTF Blender I/O v1.7.33",
        "version" : "2.0"
    },
    "scene" : 0,
    "scenes" : [
        {
            "name" : "Scene",
            "nodes" : [
                0,
                1
            ]
        }
    ],
    "nodes" : [
        {
            "mesh" : 0,
            "name" : "Cube",
            "scale" : [
                1,
                1.927200436592102,
                -0.13008153438568115
            ]
        },
        {
            "mesh" : 1,
            "name" : "Text",
            "rotation" : [
                0.7071068286895752,
                0,
                0,
                0.7071068286895752
            ],
            "scale" : [
                0.14960521459579468,
                0.14960521459579468,
                0.14960521459579468
            ],
            "translation" : [
                -0.8023086190223694,
                -1.6046168804168701,
                0.09446033090353012
            ]
        }
    ],
    "materials" : [
        {
            "doubleSided" : true,
            "name" : "Phone",
            "pbrMetallicRoughness" : {
                "baseColorTexture" : {
                    "index" : 0
                },
                "metallicFactor" : 0.5596330165863037,
                "roughnessFactor" : 0.35321101546287537
            }
        },
        {
            "doubleSided" : true,
            "name" : "Screen",
            "pbrMetallicRoughness" : {
                "baseColorTexture" : {
                    "index" : 1,
                    "texCoord" : 1
                },
                "metallicFactor" : 0,
                "roughnessFactor" : 0.43090909719467163
            }
        },
        {
            "doubleSided" : true,
            "name" : "camera",
            "pbrMetallicRoughness" : {
                "baseColorFactor" : [
                    0.9878625869750977,
                    0.9878625869750977,
                    0.9878625869750977,
                    1
                ],
                "roughnessFactor" : 0
            }
        },
        {
            "alphaMode" : "BLEND",
            "doubleSided" : true,
            "name" : "icon",
            "pbrMetallicRoughness" : {
                "baseColorTexture" : {
                    "index" : 2
                },
                "metallicFactor" : 0,
                "roughnessFactor" : 0.5
            }
        }
    ],
    "meshes" : [
        {
            "name" : "Cube",
            "primitives" : [
                {
                    "attributes" : {
                        "POSITION" : 0,
                        "NORMAL" : 1,
                        "TEXCOORD_0" : 2,
                        "TEXCOORD_1" : 3
                    },
                    "indices" : 4,
                    "material" : 0
                },
                {
                    "attributes" : {
                        "POSITION" : 5,
                        "NORMAL" : 6,
                        "TEXCOORD_0" : 7,
                        "TEXCOORD_1" : 8
                    },
                    "indices" : 9,
                    "material" : 1
                },
                {
                    "attributes" : {
                        "POSITION" : 10,
                        "NORMAL" : 11,
                        "TEXCOORD_0" : 12,
                        "TEXCOORD_1" : 13
                    },
                    "indices" : 14,
                    "material" : 2
                },
                {
                    "attributes" : {
                        "POSITION" : 15,
                        "NORMAL" : 16,
                        "TEXCOORD_0" : 17,
                        "TEXCOORD_1" : 18
                    },
                    "indices" : 19,
                    "material" : 3
                }
            ]
        },
        {
            "name" : "Text",
            "primitives" : [
                {
                    "attributes" : {
                        "POSITION" : 20,
                        "NORMAL" : 21,
                        "TANGENT" : 22,
                        "TEXCOORD_0" : 23
                    },
                    "indices" : 24
                }
            ]
        }
    ],
    "textures" : [
        {
            "sampler" : 0,
            "source" : 0
        },
        {
            "sampler" : 0,
            "source" : 1
        },
        {
            "sampler" : 0,
            "source" : 2
        }
    ],
    "images" : [
        {
            "mimeType" : "image/png",
            "name" : "newlogo",
            "uri" : "newlogo.png"
        },
        {
            "mimeType" : "image/png",
            "name" : "doomvid",
            "uri" : "doomvid.png"
        },
        {
            "mimeType" : "image/png",
            "name" : "icon",
            "uri" : "icon.png"
        }
    ],
    "accessors" : [
        {
            "bufferView" : 0,
            "componentType" : 5126,
            "count" : 366,
            "max" : [
                1,
                1,
                1
            ],
            "min" : [
                -1,
                -1,
                -0.8799672722816467
            ],
            "type" : "VEC3"
        },
        {
            "bufferView" : 1,
            "componentType" : 5126,
            "count" : 366,
            "type" : "VEC3"
        },
        {
            "bufferView" : 2,
            "componentType" : 5126,
            "count" : 366,
            "type" : "VEC2"
        },
        {
            "bufferView" : 3,
            "componentType" : 5126,
            "count" : 366,
            "type" : "VEC2"
        },
        {
            "bufferView" : 4,
            "componentType" : 5123,
            "count" : 1170,
            "type" : "SCALAR"
        },
        {
            "bufferView" : 5,
            "componentType" : 5126,
            "count" : 40,
            "max" : [
                0.9448106288909912,
                0.9445747137069702,
                -0.5454165935516357
            ],
            "min" : [
                -0.9448089003562927,
                -0.9453668594360352,
                -0.8664687871932983
            ],
            "type" : "VEC3"
        },
        {
            "bufferView" : 6,
            "componentType" : 5126,
            "count" : 40,
            "type" : "VEC3"
        },
        {
            "bufferView" : 7,
            "componentType" : 5126,
            "count" : 40,
            "type" : "VEC2"
        },
        {
            "bufferView" : 8,
            "componentType" : 5126,
            "count" : 40,
            "type" : "VEC2"
        },
        {
            "bufferView" : 9,
            "componentType" : 5123,
            "count" : 162,
            "type" : "SCALAR"
        },
        {
            "bufferView" : 10,
            "componentType" : 5126,
            "count" : 32,
            "max" : [
                0.03480958938598633,
                0.954565167427063,
                -0.863810658454895
            ],
            "min" : [
                -0.03480958938598633,
                0.9184406995773315,
                -0.8648608922958374
            ],
            "type" : "VEC3"
        },
        {
            "bufferView" : 11,
            "componentType" : 5126,
            "count" : 32,
            "type" : "VEC3"
        },
        {
            "bufferView" : 12,
            "componentType" : 5126,
            "count" : 32,
            "type" : "VEC2"
        },
        {
            "bufferView" : 13,
            "componentType" : 5126,
            "count" : 32,
            "type" : "VEC2"
        },
        {
            "bufferView" : 14,
            "componentType" : 5123,
            "count" : 90,
            "type" : "SCALAR"
        },
        {
            "bufferView" : 15,
            "componentType" : 5126,
            "count" : 4,
            "max" : [
                -0.5453570485115051,
                -0.6181195974349976,
                -0.9235939979553223
            ],
            "min" : [
                -0.8170538544654846,
                -0.7590996026992798,
                -0.9235941171646118
            ],
            "type" : "VEC3"
        },
        {
            "bufferView" : 16,
            "componentType" : 5126,
            "count" : 4,
            "type" : "VEC3"
        },
        {
            "bufferView" : 17,
            "componentType" : 5126,
            "count" : 4,
            "type" : "VEC2"
        },
        {
            "bufferView" : 18,
            "componentType" : 5126,
            "count" : 4,
            "type" : "VEC2"
        },
        {
            "bufferView" : 19,
            "componentType" : 5123,
            "count" : 6,
            "type" : "SCALAR"
        },
        {
            "bufferView" : 20,
            "componentType" : 5126,
            "count" : 1031,
            "max" : [
                3.8000001907348633,
                0,
                0.009000000543892384
            ],
            "min" : [
                0.07300000637769699,
                0,
                -0.6914074420928955
            ],
            "type" : "VEC3"
        },
        {
            "bufferView" : 21,
            "componentType" : 5126,
            "count" : 1031,
            "type" : "VEC3"
        },
        {
            "bufferView" : 22,
            "componentType" : 5126,
            "count" : 1031,
            "type" : "VEC4"
        },
        {
            "bufferView" : 23,
            "componentType" : 5126,
            "count" : 1031,
            "type" : "VEC2"
        },
        {
            "bufferView" : 24,
            "componentType" : 5123,
            "count" : 2313,
            "type" : "SCALAR"
        }
    ],
    "bufferViews" : [
        {
            "buffer" : 0,
            "byteLength" : 4392,
            "byteOffset" : 0
        },
        {
            "buffer" : 0,
            "byteLength" : 4392,
            "byteOffset" : 4392
        },
        {
            "buffer" : 0,
            "byteLength" : 2928,
            "byteOffset" : 8784
        },
        {
            "buffer" : 0,
            "byteLength" : 2928,
            "byteOffset" : 11712
        },
        {
            "buffer" : 0,
            "byteLength" : 2340,
            "byteOffset" : 14640
        },
        {
            "buffer" : 0,
            "byteLength" : 480,
            "byteOffset" : 16980
        },
        {
            "buffer" : 0,
            "byteLength" : 480,
            "byteOffset" : 17460
        },
        {
            "buffer" : 0,
            "byteLength" : 320,
            "byteOffset" : 17940
        },
        {
            "buffer" : 0,
            "byteLength" : 320,
            "byteOffset" : 18260
        },
        {
            "buffer" : 0,
            "byteLength" : 324,
            "byteOffset" : 18580
        },
        {
            "buffer" : 0,
            "byteLength" : 384,
            "byteOffset" : 18904
        },
        {
            "buffer" : 0,
            "byteLength" : 384,
            "byteOffset" : 19288
        },
        {
            "buffer" : 0,
            "byteLength" : 256,
            "byteOffset" : 19672
        },
        {
            "buffer" : 0,
            "byteLength" : 256,
            "byteOffset" : 19928
        },
        {
            "buffer" : 0,
            "byteLength" : 180,
            "byteOffset" : 20184
        },
        {
            "buffer" : 0,
            "byteLength" : 48,
            "byteOffset" : 20364
        },
        {
            "buffer" : 0,
            "byteLength" : 48,
            "byteOffset" : 20412
        },
        {
            "buffer" : 0,
            "byteLength" : 32,
            "byteOffset" : 20460
        },
        {
            "buffer" : 0,
            "byteLength" : 32,
            "byteOffset" : 20492
        },
        {
            "buffer" : 0,
            "byteLength" : 12,
            "byteOffset" : 20524
        },
        {
            "buffer" : 0,
            "byteLength" : 12372,
            "byteOffset" : 20536
        },
        {
            "buffer" : 0,
            "byteLength" : 12372,
            "byteOffset" : 32908
        },
        {
            "buffer" : 0,
            "byteLength" : 16496,
            "byteOffset" : 45280
        },
        {
            "buffer" : 0,
            "byteLength" : 8248,
            "byteOffset" : 61776
        },
        {
            "buffer" : 0,
            "byteLength" : 4626,
            "byteOffset" : 70024
        }
    ],
    "samplers" : [
        {
            "magFilter" : 9729,
            "minFilter" : 9987,
            "wrapS" : 33071,
            "wrapT" : 33071
        }
    ],
    "buffers" : [
        {
            "byteLength" : 74652,
            "uri" : "metal_phone.bin"
        }
    ]
}
